<?xml version="1.0" encoding="utf-8"?>
<!-- Generator: Adobe Illustrator 23.1.0, SVG Export Plug-In . SVG Version: 6.00 Build 0)  -->
<svg version="1.1" id="Слой_1" xmlns="http://www.w3.org/2000/svg" xmlns:xlink="http://www.w3.org/1999/xlink" x="0px" y="0px"
	 viewBox="0 0 300 70" style="enable-background:new 0 0 300 70;" xml:space="preserve">
<g>
	<path d="M0,37c0-15.3,9.3-24.5,21.8-24.5c6.6,0,11,3,13.8,5.9l-3.6,4.3c-2.4-2.4-5.4-4.4-10-4.4c-9.2,0-15.2,7.1-15.2,18.6
		c0,11.6,5.5,18.8,15.4,18.8c3.2,0,6.3-0.9,8.1-2.6V41.3h-8.7l-1-5.5h15.7v20.1c-3.1,3.2-8.3,5.5-14.7,5.5C9.1,61.4,0,52.4,0,37z"/>
	<path d="M40.3,43c0-11.4,7.8-18.5,15.9-18.5c9.1,0,14.1,6.5,14.1,16.5c0,1.3-0.1,2.7-0.3,3.5H46.7c0.5,7.1,4.9,11.6,11.3,11.6
		c3.3,0,6-1.1,8.6-2.7l2.3,4.2c-3.1,2.1-7,3.7-11.7,3.7C47.7,61.4,40.3,54.6,40.3,43z M64.5,40c0-6.6-3-10.3-8.3-10.3
		c-4.7,0-8.9,3.7-9.6,10.3H64.5z"/>
	<path d="M75.1,49.4V30.7h-5.2v-4.9l5.5-0.3l0.8-9.8h5.4v9.8h9.4v5.3h-9.4v18.8c0,4.2,1.4,6.6,5.3,6.6c1.2,0,2.8-0.5,3.9-0.9
		l1.2,4.9c-2,0.7-4.3,1.3-6.7,1.3C77.7,61.4,75.1,56.6,75.1,49.4z"/>
	<path d="M95.4,13.3h27.6v5.6h-21v15.3h17.8v5.6H102v20.8h-6.6V13.3z"/>
	<path d="M126.7,53V10.3l6.5-1v44.1c0,1.9,0.8,2.6,1.7,2.6c0.3,0,0.6,0,1.3-0.1l0.9,4.9c-0.9,0.3-2,0.6-3.7,0.6
		C128.6,61.4,126.7,58.3,126.7,53z"/>
	<path d="M138.8,43c0-11.7,7.7-18.5,16.4-18.5c8.6,0,16.4,6.7,16.4,18.5c0,11.6-7.7,18.4-16.4,18.4C146.6,61.4,138.8,54.7,138.8,43z
		 M164.8,43c0-7.8-4-16-9.8-16s-9.5,8.2-9.5,16c0,7.8,3.6,16,9.5,16S164.8,50.8,164.8,43z"/>
	<path d="M172.3,25.4l6.6,1l5,19.8c0.7,3.4,1.4,5.5,2,8.9h0.3c0.7-3.3,1.5-4.6,2.3-7.9l5.2-18.8h6.2l5.3,18.8
		c0.9,3.4,1.6,4.5,2.4,7.9h0.3c0.7-3.3,1.4-5.5,2.1-8.9l4.9-19.8l6.2-1l-9.3,35.1h-7.9l-4.8-16.2c-0.8-3.3-1.5-6.5-2.3-10.1h-0.3
		c-0.7,3.6-1.4,6.9-2.3,10.2l-4.7,16.2h-7.6L172.3,25.4z"/>
	<path d="M221.8,43c0-11.4,7.8-18.5,15.9-18.5c9.1,0,14.1,6.5,14.1,16.5c0,1.3-0.1,2.7-0.3,3.5h-23.3c0.5,7.1,4.9,11.6,11.3,11.6
		c3.3,0,6-1.1,8.6-2.7l2.3,4.2c-3.1,2.1-7,3.7-11.7,3.7C229.3,61.4,221.8,54.6,221.8,43z M246.1,40c0-6.6-3-10.3-8.3-10.3
		c-4.7,0-8.9,3.7-9.6,10.3H246.1z"/>
	<path d="M256.2,25.4l5.4,1l0.5,5.4h0.2c2.5-4.5,6.1-7.2,10-7.2c1.6,0,2.7,0.2,3.8,0.7l-1.2,5.7c-1.2-0.4-2-0.6-3.5-0.6
		c-2.9,0-6.4,2.1-8.7,7.9v22.3h-6.5V25.4z"/>
	<path d="M273.6,56.5l3.2-3.2c3.1,2.4,6.1,3.1,10.2,3.1c4.4,0,6.6-2.3,6.6-5.1c0-3.4-4.1-5-7.9-6.4c-4.8-1.8-10.3-4.3-10.3-10.2
		c0-5.7,4.6-10.1,12.3-10.1c4.5,0,8.3,1.8,11.1,4l-3.1,3.1c-2.4-1.8-4.9-2.1-7.9-2.1c-4.2,0-6.1,2.2-6.1,4.7c0,3.2,3.7,4.4,7.7,5.9
		c5,1.9,10.5,4,10.5,10.6c0,5.8-4.6,10.5-13,10.5C281.8,61.4,277,59.3,273.6,56.5z"/>
</g>
</svg>
